<svg xmlns="http://www.w3.org/2000/svg" xmlns:xlink="http://www.w3.org/1999/xlink" width="600" height="400" viewBox="0 0 2400 1600">
<defs>
  <clipPath id="clip120">
    <rect x="0" y="0" width="2400" height="1600"></rect>
  </clipPath>
</defs>
<path clip-path="url(#clip120)" d="M0 1600 L2400 1600 L2400 0 L0 0  Z" fill="#ffffff" fill-rule="evenodd" fill-opacity="1"></path>
<defs>
  <clipPath id="clip121">
    <rect x="480" y="0" width="1681" height="1600"></rect>
  </clipPath>
</defs>
<path clip-path="url(#clip120)" d="M186.274 1423.18 L2352.76 1423.18 L2352.76 123.472 L186.274 123.472  Z" fill="#ffffff" fill-rule="evenodd" fill-opacity="1"></path>
<defs>
  <clipPath id="clip122">
    <rect x="186" y="123" width="2167" height="1301"></rect>
  </clipPath>
</defs>
<polyline clip-path="url(#clip122)" style="stroke:#000000; stroke-linecap:round; stroke-linejoin:round; stroke-width:2; stroke-opacity:0.1; fill:none" points="243.502,1423.18 243.502,123.472 "></polyline>
<polyline clip-path="url(#clip122)" style="stroke:#000000; stroke-linecap:round; stroke-linejoin:round; stroke-width:2; stroke-opacity:0.1; fill:none" points="652.272,1423.18 652.272,123.472 "></polyline>
<polyline clip-path="url(#clip122)" style="stroke:#000000; stroke-linecap:round; stroke-linejoin:round; stroke-width:2; stroke-opacity:0.1; fill:none" points="1061.04,1423.18 1061.04,123.472 "></polyline>
<polyline clip-path="url(#clip122)" style="stroke:#000000; stroke-linecap:round; stroke-linejoin:round; stroke-width:2; stroke-opacity:0.1; fill:none" points="1469.81,1423.18 1469.81,123.472 "></polyline>
<polyline clip-path="url(#clip122)" style="stroke:#000000; stroke-linecap:round; stroke-linejoin:round; stroke-width:2; stroke-opacity:0.1; fill:none" points="1878.58,1423.18 1878.58,123.472 "></polyline>
<polyline clip-path="url(#clip122)" style="stroke:#000000; stroke-linecap:round; stroke-linejoin:round; stroke-width:2; stroke-opacity:0.1; fill:none" points="2287.35,1423.18 2287.35,123.472 "></polyline>
<polyline clip-path="url(#clip120)" style="stroke:#000000; stroke-linecap:round; stroke-linejoin:round; stroke-width:4; stroke-opacity:1; fill:none" points="186.274,1423.18 2352.76,1423.18 "></polyline>
<polyline clip-path="url(#clip120)" style="stroke:#000000; stroke-linecap:round; stroke-linejoin:round; stroke-width:4; stroke-opacity:1; fill:none" points="243.502,1423.18 243.502,1404.28 "></polyline>
<polyline clip-path="url(#clip120)" style="stroke:#000000; stroke-linecap:round; stroke-linejoin:round; stroke-width:4; stroke-opacity:1; fill:none" points="652.272,1423.18 652.272,1404.28 "></polyline>
<polyline clip-path="url(#clip120)" style="stroke:#000000; stroke-linecap:round; stroke-linejoin:round; stroke-width:4; stroke-opacity:1; fill:none" points="1061.04,1423.18 1061.04,1404.28 "></polyline>
<polyline clip-path="url(#clip120)" style="stroke:#000000; stroke-linecap:round; stroke-linejoin:round; stroke-width:4; stroke-opacity:1; fill:none" points="1469.81,1423.18 1469.81,1404.28 "></polyline>
<polyline clip-path="url(#clip120)" style="stroke:#000000; stroke-linecap:round; stroke-linejoin:round; stroke-width:4; stroke-opacity:1; fill:none" points="1878.58,1423.18 1878.58,1404.28 "></polyline>
<polyline clip-path="url(#clip120)" style="stroke:#000000; stroke-linecap:round; stroke-linejoin:round; stroke-width:4; stroke-opacity:1; fill:none" points="2287.35,1423.18 2287.35,1404.28 "></polyline>
<path clip-path="url(#clip120)" d="M243.502 1454.1 Q239.891 1454.1 238.062 1457.66 Q236.256 1461.2 236.256 1468.33 Q236.256 1475.44 238.062 1479.01 Q239.891 1482.55 243.502 1482.55 Q247.136 1482.55 248.942 1479.01 Q250.77 1475.44 250.77 1468.33 Q250.77 1461.2 248.942 1457.66 Q247.136 1454.1 243.502 1454.1 M243.502 1450.39 Q249.312 1450.39 252.368 1455 Q255.446 1459.58 255.446 1468.33 Q255.446 1477.06 252.368 1481.67 Q249.312 1486.25 243.502 1486.25 Q237.692 1486.25 234.613 1481.67 Q231.557 1477.06 231.557 1468.33 Q231.557 1459.58 234.613 1455 Q237.692 1450.39 243.502 1450.39 Z" fill="#000000" fill-rule="nonzero" fill-opacity="1"></path><path clip-path="url(#clip120)" d="M611.879 1481.64 L619.518 1481.64 L619.518 1455.28 L611.207 1456.95 L611.207 1452.69 L619.471 1451.02 L624.147 1451.02 L624.147 1481.64 L631.786 1481.64 L631.786 1485.58 L611.879 1485.58 L611.879 1481.64 Z" fill="#000000" fill-rule="nonzero" fill-opacity="1"></path><path clip-path="url(#clip120)" d="M651.23 1454.1 Q647.619 1454.1 645.791 1457.66 Q643.985 1461.2 643.985 1468.33 Q643.985 1475.44 645.791 1479.01 Q647.619 1482.55 651.23 1482.55 Q654.865 1482.55 656.67 1479.01 Q658.499 1475.44 658.499 1468.33 Q658.499 1461.2 656.67 1457.66 Q654.865 1454.1 651.23 1454.1 M651.23 1450.39 Q657.04 1450.39 660.096 1455 Q663.175 1459.58 663.175 1468.33 Q663.175 1477.06 660.096 1481.67 Q657.04 1486.25 651.23 1486.25 Q645.42 1486.25 642.341 1481.67 Q639.286 1477.06 639.286 1468.33 Q639.286 1459.58 642.341 1455 Q645.42 1450.39 651.23 1450.39 Z" fill="#000000" fill-rule="nonzero" fill-opacity="1"></path><path clip-path="url(#clip120)" d="M681.392 1454.1 Q677.781 1454.1 675.952 1457.66 Q674.147 1461.2 674.147 1468.33 Q674.147 1475.44 675.952 1479.01 Q677.781 1482.55 681.392 1482.55 Q685.026 1482.55 686.832 1479.01 Q688.661 1475.44 688.661 1468.33 Q688.661 1461.2 686.832 1457.66 Q685.026 1454.1 681.392 1454.1 M681.392 1450.39 Q687.202 1450.39 690.258 1455 Q693.337 1459.58 693.337 1468.33 Q693.337 1477.06 690.258 1481.67 Q687.202 1486.25 681.392 1486.25 Q675.582 1486.25 672.503 1481.67 Q669.448 1477.06 669.448 1468.33 Q669.448 1459.58 672.503 1455 Q675.582 1450.39 681.392 1450.39 Z" fill="#000000" fill-rule="nonzero" fill-opacity="1"></path><path clip-path="url(#clip120)" d="M1024.73 1481.64 L1041.05 1481.64 L1041.05 1485.58 L1019.11 1485.58 L1019.11 1481.64 Q1021.77 1478.89 1026.35 1474.26 Q1030.96 1469.61 1032.14 1468.27 Q1034.39 1465.74 1035.27 1464.01 Q1036.17 1462.25 1036.17 1460.56 Q1036.17 1457.8 1034.23 1456.07 Q1032.3 1454.33 1029.2 1454.33 Q1027 1454.33 1024.55 1455.09 Q1022.12 1455.86 1019.34 1457.41 L1019.34 1452.69 Q1022.17 1451.55 1024.62 1450.97 Q1027.07 1450.39 1029.11 1450.39 Q1034.48 1450.39 1037.67 1453.08 Q1040.87 1455.77 1040.87 1460.26 Q1040.87 1462.39 1040.06 1464.31 Q1039.27 1466.2 1037.16 1468.8 Q1036.59 1469.47 1033.48 1472.69 Q1030.38 1475.88 1024.73 1481.64 Z" fill="#000000" fill-rule="nonzero" fill-opacity="1"></path><path clip-path="url(#clip120)" d="M1060.87 1454.1 Q1057.26 1454.1 1055.43 1457.66 Q1053.62 1461.2 1053.62 1468.33 Q1053.62 1475.44 1055.43 1479.01 Q1057.26 1482.55 1060.87 1482.55 Q1064.5 1482.55 1066.31 1479.01 Q1068.14 1475.44 1068.14 1468.33 Q1068.14 1461.2 1066.31 1457.66 Q1064.5 1454.1 1060.87 1454.1 M1060.87 1450.39 Q1066.68 1450.39 1069.73 1455 Q1072.81 1459.58 1072.81 1468.33 Q1072.81 1477.06 1069.73 1481.67 Q1066.68 1486.25 1060.87 1486.25 Q1055.06 1486.25 1051.98 1481.67 Q1048.92 1477.06 1048.92 1468.33 Q1048.92 1459.58 1051.98 1455 Q1055.06 1450.39 1060.87 1450.39 Z" fill="#000000" fill-rule="nonzero" fill-opacity="1"></path><path clip-path="url(#clip120)" d="M1091.03 1454.1 Q1087.42 1454.1 1085.59 1457.66 Q1083.79 1461.2 1083.79 1468.33 Q1083.79 1475.44 1085.59 1479.01 Q1087.42 1482.55 1091.03 1482.55 Q1094.66 1482.55 1096.47 1479.01 Q1098.3 1475.44 1098.3 1468.33 Q1098.3 1461.2 1096.47 1457.66 Q1094.66 1454.1 1091.03 1454.1 M1091.03 1450.39 Q1096.84 1450.39 1099.9 1455 Q1102.97 1459.58 1102.97 1468.33 Q1102.97 1477.06 1099.9 1481.67 Q1096.84 1486.25 1091.03 1486.25 Q1085.22 1486.25 1082.14 1481.67 Q1079.09 1477.06 1079.09 1468.33 Q1079.09 1459.58 1082.14 1455 Q1085.22 1450.39 1091.03 1450.39 Z" fill="#000000" fill-rule="nonzero" fill-opacity="1"></path><path clip-path="url(#clip120)" d="M1443.57 1466.95 Q1446.93 1467.66 1448.81 1469.93 Q1450.7 1472.2 1450.7 1475.53 Q1450.7 1480.65 1447.19 1483.45 Q1443.67 1486.25 1437.19 1486.25 Q1435.01 1486.25 1432.69 1485.81 Q1430.4 1485.39 1427.95 1484.54 L1427.95 1480.02 Q1429.89 1481.16 1432.21 1481.74 Q1434.52 1482.32 1437.05 1482.32 Q1441.44 1482.32 1443.74 1480.58 Q1446.05 1478.84 1446.05 1475.53 Q1446.05 1472.48 1443.9 1470.77 Q1441.77 1469.03 1437.95 1469.03 L1433.92 1469.03 L1433.92 1465.19 L1438.13 1465.19 Q1441.58 1465.19 1443.41 1463.82 Q1445.24 1462.43 1445.24 1459.84 Q1445.24 1457.18 1443.34 1455.77 Q1441.47 1454.33 1437.95 1454.33 Q1436.03 1454.33 1433.83 1454.75 Q1431.63 1455.16 1428.99 1456.04 L1428.99 1451.88 Q1431.65 1451.14 1433.97 1450.77 Q1436.31 1450.39 1438.37 1450.39 Q1443.69 1450.39 1446.79 1452.83 Q1449.89 1455.23 1449.89 1459.35 Q1449.89 1462.22 1448.25 1464.21 Q1446.61 1466.18 1443.57 1466.95 Z" fill="#000000" fill-rule="nonzero" fill-opacity="1"></path><path clip-path="url(#clip120)" d="M1469.57 1454.1 Q1465.96 1454.1 1464.13 1457.66 Q1462.32 1461.2 1462.32 1468.33 Q1462.32 1475.44 1464.13 1479.01 Q1465.96 1482.55 1469.57 1482.55 Q1473.2 1482.55 1475.01 1479.01 Q1476.84 1475.44 1476.84 1468.33 Q1476.84 1461.2 1475.01 1457.66 Q1473.2 1454.1 1469.57 1454.1 M1469.57 1450.39 Q1475.38 1450.39 1478.43 1455 Q1481.51 1459.58 1481.51 1468.33 Q1481.51 1477.06 1478.43 1481.67 Q1475.38 1486.25 1469.57 1486.25 Q1463.76 1486.25 1460.68 1481.67 Q1457.62 1477.06 1457.62 1468.33 Q1457.62 1459.58 1460.68 1455 Q1463.76 1450.39 1469.57 1450.39 Z" fill="#000000" fill-rule="nonzero" fill-opacity="1"></path><path clip-path="url(#clip120)" d="M1499.73 1454.1 Q1496.12 1454.1 1494.29 1457.66 Q1492.49 1461.2 1492.49 1468.33 Q1492.49 1475.44 1494.29 1479.01 Q1496.12 1482.55 1499.73 1482.55 Q1503.37 1482.55 1505.17 1479.01 Q1507 1475.44 1507 1468.33 Q1507 1461.2 1505.17 1457.66 Q1503.37 1454.1 1499.73 1454.1 M1499.73 1450.39 Q1505.54 1450.39 1508.6 1455 Q1511.68 1459.58 1511.68 1468.33 Q1511.68 1477.06 1508.6 1481.67 Q1505.54 1486.25 1499.73 1486.25 Q1493.92 1486.25 1490.84 1481.67 Q1487.79 1477.06 1487.79 1468.33 Q1487.79 1459.58 1490.84 1455 Q1493.92 1450.39 1499.73 1450.39 Z" fill="#000000" fill-rule="nonzero" fill-opacity="1"></path><path clip-path="url(#clip120)" d="M1851.67 1455.09 L1839.87 1473.54 L1851.67 1473.54 L1851.67 1455.09 M1850.45 1451.02 L1856.33 1451.02 L1856.33 1473.54 L1861.26 1473.54 L1861.26 1477.43 L1856.33 1477.43 L1856.33 1485.58 L1851.67 1485.58 L1851.67 1477.43 L1836.07 1477.43 L1836.07 1472.92 L1850.45 1451.02 Z" fill="#000000" fill-rule="nonzero" fill-opacity="1"></path><path clip-path="url(#clip120)" d="M1878.99 1454.1 Q1875.38 1454.1 1873.55 1457.66 Q1871.74 1461.2 1871.74 1468.33 Q1871.74 1475.44 1873.55 1479.01 Q1875.38 1482.55 1878.99 1482.55 Q1882.62 1482.55 1884.43 1479.01 Q1886.26 1475.44 1886.26 1468.33 Q1886.26 1461.2 1884.43 1457.66 Q1882.62 1454.1 1878.99 1454.1 M1878.99 1450.39 Q1884.8 1450.39 1887.85 1455 Q1890.93 1459.58 1890.93 1468.33 Q1890.93 1477.06 1887.85 1481.67 Q1884.8 1486.25 1878.99 1486.25 Q1873.18 1486.25 1870.1 1481.67 Q1867.04 1477.06 1867.04 1468.33 Q1867.04 1459.58 1870.1 1455 Q1873.18 1450.39 1878.99 1450.39 Z" fill="#000000" fill-rule="nonzero" fill-opacity="1"></path><path clip-path="url(#clip120)" d="M1909.15 1454.1 Q1905.54 1454.1 1903.71 1457.66 Q1901.9 1461.2 1901.9 1468.33 Q1901.9 1475.44 1903.71 1479.01 Q1905.54 1482.55 1909.15 1482.55 Q1912.78 1482.55 1914.59 1479.01 Q1916.42 1475.44 1916.42 1468.33 Q1916.42 1461.2 1914.59 1457.66 Q1912.78 1454.1 1909.15 1454.1 M1909.15 1450.39 Q1914.96 1450.39 1918.02 1455 Q1921.09 1459.58 1921.09 1468.33 Q1921.09 1477.06 1918.02 1481.67 Q1914.96 1486.25 1909.15 1486.25 Q1903.34 1486.25 1900.26 1481.67 Q1897.21 1477.06 1897.21 1468.33 Q1897.21 1459.58 1900.26 1455 Q1903.34 1450.39 1909.15 1450.39 Z" fill="#000000" fill-rule="nonzero" fill-opacity="1"></path><path clip-path="url(#clip120)" d="M2246.97 1451.02 L2265.33 1451.02 L2265.33 1454.96 L2251.25 1454.96 L2251.25 1463.43 Q2252.27 1463.08 2253.29 1462.92 Q2254.31 1462.73 2255.33 1462.73 Q2261.11 1462.73 2264.49 1465.9 Q2267.87 1469.08 2267.87 1474.49 Q2267.87 1480.07 2264.4 1483.17 Q2260.93 1486.25 2254.61 1486.25 Q2252.43 1486.25 2250.17 1485.88 Q2247.92 1485.51 2245.51 1484.77 L2245.51 1480.07 Q2247.6 1481.2 2249.82 1481.76 Q2252.04 1482.32 2254.52 1482.32 Q2258.52 1482.32 2260.86 1480.21 Q2263.2 1478.1 2263.2 1474.49 Q2263.2 1470.88 2260.86 1468.77 Q2258.52 1466.67 2254.52 1466.67 Q2252.64 1466.67 2250.77 1467.08 Q2248.92 1467.5 2246.97 1468.38 L2246.97 1451.02 Z" fill="#000000" fill-rule="nonzero" fill-opacity="1"></path><path clip-path="url(#clip120)" d="M2287.09 1454.1 Q2283.48 1454.1 2281.65 1457.66 Q2279.84 1461.2 2279.84 1468.33 Q2279.84 1475.44 2281.65 1479.01 Q2283.48 1482.55 2287.09 1482.55 Q2290.72 1482.55 2292.53 1479.01 Q2294.35 1475.44 2294.35 1468.33 Q2294.35 1461.2 2292.53 1457.66 Q2290.72 1454.1 2287.09 1454.1 M2287.09 1450.39 Q2292.9 1450.39 2295.95 1455 Q2299.03 1459.58 2299.03 1468.33 Q2299.03 1477.06 2295.95 1481.67 Q2292.9 1486.25 2287.09 1486.25 Q2281.28 1486.25 2278.2 1481.67 Q2275.14 1477.06 2275.14 1468.33 Q2275.14 1459.58 2278.2 1455 Q2281.28 1450.39 2287.09 1450.39 Z" fill="#000000" fill-rule="nonzero" fill-opacity="1"></path><path clip-path="url(#clip120)" d="M2317.25 1454.1 Q2313.64 1454.1 2311.81 1457.66 Q2310 1461.2 2310 1468.33 Q2310 1475.44 2311.81 1479.01 Q2313.64 1482.55 2317.25 1482.55 Q2320.88 1482.55 2322.69 1479.01 Q2324.52 1475.44 2324.52 1468.33 Q2324.52 1461.2 2322.69 1457.66 Q2320.88 1454.1 2317.25 1454.1 M2317.25 1450.39 Q2323.06 1450.39 2326.11 1455 Q2329.19 1459.58 2329.19 1468.33 Q2329.19 1477.06 2326.11 1481.67 Q2323.06 1486.25 2317.25 1486.25 Q2311.44 1486.25 2308.36 1481.67 Q2305.3 1477.06 2305.3 1468.33 Q2305.3 1459.58 2308.36 1455 Q2311.44 1450.39 2317.25 1450.39 Z" fill="#000000" fill-rule="nonzero" fill-opacity="1"></path><path clip-path="url(#clip120)" d="M1208.67 1522.27 L1208.67 1532.4 L1220.74 1532.4 L1220.74 1536.95 L1208.67 1536.95 L1208.67 1556.3 Q1208.67 1560.66 1209.85 1561.9 Q1211.06 1563.14 1214.72 1563.14 L1220.74 1563.14 L1220.74 1568.04 L1214.72 1568.04 Q1207.94 1568.04 1205.36 1565.53 Q1202.79 1562.98 1202.79 1556.3 L1202.79 1536.95 L1198.49 1536.95 L1198.49 1532.4 L1202.79 1532.4 L1202.79 1522.27 L1208.67 1522.27 Z" fill="#000000" fill-rule="nonzero" fill-opacity="1"></path><path clip-path="url(#clip120)" d="M1228.44 1532.4 L1234.3 1532.4 L1234.3 1568.04 L1228.44 1568.04 L1228.44 1532.4 M1228.44 1518.52 L1234.3 1518.52 L1234.3 1525.93 L1228.44 1525.93 L1228.44 1518.52 Z" fill="#000000" fill-rule="nonzero" fill-opacity="1"></path><path clip-path="url(#clip120)" d="M1274.31 1539.24 Q1276.5 1535.29 1279.56 1533.41 Q1282.61 1531.54 1286.75 1531.54 Q1292.32 1531.54 1295.34 1535.45 Q1298.37 1539.33 1298.37 1546.53 L1298.37 1568.04 L1292.48 1568.04 L1292.48 1546.72 Q1292.48 1541.59 1290.67 1539.11 Q1288.85 1536.63 1285.13 1536.63 Q1280.58 1536.63 1277.93 1539.65 Q1275.29 1542.68 1275.29 1547.9 L1275.29 1568.04 L1269.4 1568.04 L1269.4 1546.72 Q1269.4 1541.56 1267.59 1539.11 Q1265.78 1536.63 1261.99 1536.63 Q1257.5 1536.63 1254.86 1539.68 Q1252.22 1542.71 1252.22 1547.9 L1252.22 1568.04 L1246.33 1568.04 L1246.33 1532.4 L1252.22 1532.4 L1252.22 1537.93 Q1254.22 1534.66 1257.02 1533.1 Q1259.82 1531.54 1263.67 1531.54 Q1267.56 1531.54 1270.26 1533.51 Q1273 1535.48 1274.31 1539.24 Z" fill="#000000" fill-rule="nonzero" fill-opacity="1"></path><path clip-path="url(#clip120)" d="M1340.54 1548.76 L1340.54 1551.62 L1313.61 1551.62 Q1314 1557.67 1317.24 1560.85 Q1320.52 1564 1326.34 1564 Q1329.72 1564 1332.87 1563.17 Q1336.05 1562.35 1339.17 1560.69 L1339.17 1566.23 Q1336.02 1567.57 1332.71 1568.27 Q1329.4 1568.97 1325.99 1568.97 Q1317.46 1568.97 1312.47 1564 Q1307.5 1559.04 1307.5 1550.57 Q1307.5 1541.82 1312.21 1536.69 Q1316.96 1531.54 1324.98 1531.54 Q1332.17 1531.54 1336.34 1536.18 Q1340.54 1540.8 1340.54 1548.76 M1334.68 1547.04 Q1334.62 1542.23 1331.98 1539.37 Q1329.37 1536.5 1325.04 1536.5 Q1320.14 1536.5 1317.18 1539.27 Q1314.25 1542.04 1313.8 1547.07 L1334.68 1547.04 Z" fill="#000000" fill-rule="nonzero" fill-opacity="1"></path><polyline clip-path="url(#clip122)" style="stroke:#000000; stroke-linecap:round; stroke-linejoin:round; stroke-width:2; stroke-opacity:0.1; fill:none" points="186.274,1388.07 2352.76,1388.07 "></polyline>
<polyline clip-path="url(#clip122)" style="stroke:#000000; stroke-linecap:round; stroke-linejoin:round; stroke-width:2; stroke-opacity:0.1; fill:none" points="186.274,1080.81 2352.76,1080.81 "></polyline>
<polyline clip-path="url(#clip122)" style="stroke:#000000; stroke-linecap:round; stroke-linejoin:round; stroke-width:2; stroke-opacity:0.1; fill:none" points="186.274,773.541 2352.76,773.541 "></polyline>
<polyline clip-path="url(#clip122)" style="stroke:#000000; stroke-linecap:round; stroke-linejoin:round; stroke-width:2; stroke-opacity:0.1; fill:none" points="186.274,466.276 2352.76,466.276 "></polyline>
<polyline clip-path="url(#clip122)" style="stroke:#000000; stroke-linecap:round; stroke-linejoin:round; stroke-width:2; stroke-opacity:0.1; fill:none" points="186.274,159.011 2352.76,159.011 "></polyline>
<polyline clip-path="url(#clip120)" style="stroke:#000000; stroke-linecap:round; stroke-linejoin:round; stroke-width:4; stroke-opacity:1; fill:none" points="186.274,1423.18 186.274,123.472 "></polyline>
<polyline clip-path="url(#clip120)" style="stroke:#000000; stroke-linecap:round; stroke-linejoin:round; stroke-width:4; stroke-opacity:1; fill:none" points="186.274,1388.07 205.172,1388.07 "></polyline>
<polyline clip-path="url(#clip120)" style="stroke:#000000; stroke-linecap:round; stroke-linejoin:round; stroke-width:4; stroke-opacity:1; fill:none" points="186.274,1080.81 205.172,1080.81 "></polyline>
<polyline clip-path="url(#clip120)" style="stroke:#000000; stroke-linecap:round; stroke-linejoin:round; stroke-width:4; stroke-opacity:1; fill:none" points="186.274,773.541 205.172,773.541 "></polyline>
<polyline clip-path="url(#clip120)" style="stroke:#000000; stroke-linecap:round; stroke-linejoin:round; stroke-width:4; stroke-opacity:1; fill:none" points="186.274,466.276 205.172,466.276 "></polyline>
<polyline clip-path="url(#clip120)" style="stroke:#000000; stroke-linecap:round; stroke-linejoin:round; stroke-width:4; stroke-opacity:1; fill:none" points="186.274,159.011 205.172,159.011 "></polyline>
<path clip-path="url(#clip120)" d="M62.9365 1373.87 Q59.3254 1373.87 57.4967 1377.43 Q55.6912 1380.98 55.6912 1388.11 Q55.6912 1395.21 57.4967 1398.78 Q59.3254 1402.32 62.9365 1402.32 Q66.5707 1402.32 68.3763 1398.78 Q70.205 1395.21 70.205 1388.11 Q70.205 1380.98 68.3763 1377.43 Q66.5707 1373.87 62.9365 1373.87 M62.9365 1370.17 Q68.7467 1370.17 71.8022 1374.77 Q74.8809 1379.36 74.8809 1388.11 Q74.8809 1396.83 71.8022 1401.44 Q68.7467 1406.02 62.9365 1406.02 Q57.1264 1406.02 54.0477 1401.44 Q50.9921 1396.83 50.9921 1388.11 Q50.9921 1379.36 54.0477 1374.77 Q57.1264 1370.17 62.9365 1370.17 Z" fill="#000000" fill-rule="nonzero" fill-opacity="1"></path><path clip-path="url(#clip120)" d="M83.0984 1399.47 L87.9827 1399.47 L87.9827 1405.35 L83.0984 1405.35 L83.0984 1399.47 Z" fill="#000000" fill-rule="nonzero" fill-opacity="1"></path><path clip-path="url(#clip120)" d="M108.168 1373.87 Q104.557 1373.87 102.728 1377.43 Q100.922 1380.98 100.922 1388.11 Q100.922 1395.21 102.728 1398.78 Q104.557 1402.32 108.168 1402.32 Q111.802 1402.32 113.608 1398.78 Q115.436 1395.21 115.436 1388.11 Q115.436 1380.98 113.608 1377.43 Q111.802 1373.87 108.168 1373.87 M108.168 1370.17 Q113.978 1370.17 117.033 1374.77 Q120.112 1379.36 120.112 1388.11 Q120.112 1396.83 117.033 1401.44 Q113.978 1406.02 108.168 1406.02 Q102.358 1406.02 99.2789 1401.44 Q96.2234 1396.83 96.2234 1388.11 Q96.2234 1379.36 99.2789 1374.77 Q102.358 1370.17 108.168 1370.17 Z" fill="#000000" fill-rule="nonzero" fill-opacity="1"></path><path clip-path="url(#clip120)" d="M138.33 1373.87 Q134.719 1373.87 132.89 1377.43 Q131.084 1380.98 131.084 1388.11 Q131.084 1395.21 132.89 1398.78 Q134.719 1402.32 138.33 1402.32 Q141.964 1402.32 143.769 1398.78 Q145.598 1395.21 145.598 1388.11 Q145.598 1380.98 143.769 1377.43 Q141.964 1373.87 138.33 1373.87 M138.33 1370.17 Q144.14 1370.17 147.195 1374.77 Q150.274 1379.36 150.274 1388.11 Q150.274 1396.83 147.195 1401.44 Q144.14 1406.02 138.33 1406.02 Q132.519 1406.02 129.441 1401.44 Q126.385 1396.83 126.385 1388.11 Q126.385 1379.36 129.441 1374.77 Q132.519 1370.17 138.33 1370.17 Z" fill="#000000" fill-rule="nonzero" fill-opacity="1"></path><path clip-path="url(#clip120)" d="M63.9319 1066.6 Q60.3208 1066.6 58.4921 1070.17 Q56.6865 1073.71 56.6865 1080.84 Q56.6865 1087.95 58.4921 1091.51 Q60.3208 1095.05 63.9319 1095.05 Q67.5661 1095.05 69.3717 1091.51 Q71.2004 1087.95 71.2004 1080.84 Q71.2004 1073.71 69.3717 1070.17 Q67.5661 1066.6 63.9319 1066.6 M63.9319 1062.9 Q69.742 1062.9 72.7976 1067.51 Q75.8763 1072.09 75.8763 1080.84 Q75.8763 1089.57 72.7976 1094.17 Q69.742 1098.76 63.9319 1098.76 Q58.1217 1098.76 55.043 1094.17 Q51.9875 1089.57 51.9875 1080.84 Q51.9875 1072.09 55.043 1067.51 Q58.1217 1062.9 63.9319 1062.9 Z" fill="#000000" fill-rule="nonzero" fill-opacity="1"></path><path clip-path="url(#clip120)" d="M84.0938 1092.21 L88.978 1092.21 L88.978 1098.09 L84.0938 1098.09 L84.0938 1092.21 Z" fill="#000000" fill-rule="nonzero" fill-opacity="1"></path><path clip-path="url(#clip120)" d="M103.191 1094.15 L119.51 1094.15 L119.51 1098.09 L97.566 1098.09 L97.566 1094.15 Q100.228 1091.4 104.811 1086.77 Q109.418 1082.11 110.598 1080.77 Q112.844 1078.25 113.723 1076.51 Q114.626 1074.75 114.626 1073.06 Q114.626 1070.31 112.682 1068.57 Q110.76 1066.84 107.658 1066.84 Q105.459 1066.84 103.006 1067.6 Q100.575 1068.36 97.7974 1069.91 L97.7974 1065.19 Q100.621 1064.06 103.075 1063.48 Q105.529 1062.9 107.566 1062.9 Q112.936 1062.9 116.131 1065.59 Q119.325 1068.27 119.325 1072.76 Q119.325 1074.89 118.515 1076.81 Q117.728 1078.71 115.621 1081.3 Q115.043 1081.97 111.941 1085.19 Q108.839 1088.39 103.191 1094.15 Z" fill="#000000" fill-rule="nonzero" fill-opacity="1"></path><path clip-path="url(#clip120)" d="M129.371 1063.53 L147.728 1063.53 L147.728 1067.46 L133.654 1067.46 L133.654 1075.93 Q134.672 1075.59 135.691 1075.42 Q136.709 1075.24 137.728 1075.24 Q143.515 1075.24 146.894 1078.41 Q150.274 1081.58 150.274 1087 Q150.274 1092.58 146.802 1095.68 Q143.33 1098.76 137.01 1098.76 Q134.834 1098.76 132.566 1098.39 Q130.32 1098.02 127.913 1097.28 L127.913 1092.58 Q129.996 1093.71 132.219 1094.27 Q134.441 1094.82 136.918 1094.82 Q140.922 1094.82 143.26 1092.72 Q145.598 1090.61 145.598 1087 Q145.598 1083.39 143.26 1081.28 Q140.922 1079.17 136.918 1079.17 Q135.043 1079.17 133.168 1079.59 Q131.316 1080.01 129.371 1080.89 L129.371 1063.53 Z" fill="#000000" fill-rule="nonzero" fill-opacity="1"></path><path clip-path="url(#clip120)" d="M62.9365 759.34 Q59.3254 759.34 57.4967 762.905 Q55.6912 766.446 55.6912 773.576 Q55.6912 780.682 57.4967 784.247 Q59.3254 787.789 62.9365 787.789 Q66.5707 787.789 68.3763 784.247 Q70.205 780.682 70.205 773.576 Q70.205 766.446 68.3763 762.905 Q66.5707 759.34 62.9365 759.34 M62.9365 755.636 Q68.7467 755.636 71.8022 760.242 Q74.8809 764.826 74.8809 773.576 Q74.8809 782.303 71.8022 786.909 Q68.7467 791.492 62.9365 791.492 Q57.1264 791.492 54.0477 786.909 Q50.9921 782.303 50.9921 773.576 Q50.9921 764.826 54.0477 760.242 Q57.1264 755.636 62.9365 755.636 Z" fill="#000000" fill-rule="nonzero" fill-opacity="1"></path><path clip-path="url(#clip120)" d="M83.0984 784.941 L87.9827 784.941 L87.9827 790.821 L83.0984 790.821 L83.0984 784.941 Z" fill="#000000" fill-rule="nonzero" fill-opacity="1"></path><path clip-path="url(#clip120)" d="M98.2141 756.261 L116.57 756.261 L116.57 760.196 L102.496 760.196 L102.496 768.668 Q103.515 768.321 104.534 768.159 Q105.552 767.974 106.571 767.974 Q112.358 767.974 115.737 771.145 Q119.117 774.316 119.117 779.733 Q119.117 785.312 115.645 788.414 Q112.172 791.492 105.853 791.492 Q103.677 791.492 101.409 791.122 Q99.1632 790.752 96.7558 790.011 L96.7558 785.312 Q98.8391 786.446 101.061 787.002 Q103.284 787.557 105.76 787.557 Q109.765 787.557 112.103 785.451 Q114.441 783.344 114.441 779.733 Q114.441 776.122 112.103 774.016 Q109.765 771.909 105.76 771.909 Q103.885 771.909 102.01 772.326 Q100.159 772.742 98.2141 773.622 L98.2141 756.261 Z" fill="#000000" fill-rule="nonzero" fill-opacity="1"></path><path clip-path="url(#clip120)" d="M138.33 759.34 Q134.719 759.34 132.89 762.905 Q131.084 766.446 131.084 773.576 Q131.084 780.682 132.89 784.247 Q134.719 787.789 138.33 787.789 Q141.964 787.789 143.769 784.247 Q145.598 780.682 145.598 773.576 Q145.598 766.446 143.769 762.905 Q141.964 759.34 138.33 759.34 M138.33 755.636 Q144.14 755.636 147.195 760.242 Q150.274 764.826 150.274 773.576 Q150.274 782.303 147.195 786.909 Q144.14 791.492 138.33 791.492 Q132.519 791.492 129.441 786.909 Q126.385 782.303 126.385 773.576 Q126.385 764.826 129.441 760.242 Q132.519 755.636 138.33 755.636 Z" fill="#000000" fill-rule="nonzero" fill-opacity="1"></path><path clip-path="url(#clip120)" d="M63.9319 452.075 Q60.3208 452.075 58.4921 455.64 Q56.6865 459.181 56.6865 466.311 Q56.6865 473.417 58.4921 476.982 Q60.3208 480.524 63.9319 480.524 Q67.5661 480.524 69.3717 476.982 Q71.2004 473.417 71.2004 466.311 Q71.2004 459.181 69.3717 455.64 Q67.5661 452.075 63.9319 452.075 M63.9319 448.371 Q69.742 448.371 72.7976 452.978 Q75.8763 457.561 75.8763 466.311 Q75.8763 475.038 72.7976 479.644 Q69.742 484.227 63.9319 484.227 Q58.1217 484.227 55.043 479.644 Q51.9875 475.038 51.9875 466.311 Q51.9875 457.561 55.043 452.978 Q58.1217 448.371 63.9319 448.371 Z" fill="#000000" fill-rule="nonzero" fill-opacity="1"></path><path clip-path="url(#clip120)" d="M84.0938 477.676 L88.978 477.676 L88.978 483.556 L84.0938 483.556 L84.0938 477.676 Z" fill="#000000" fill-rule="nonzero" fill-opacity="1"></path><path clip-path="url(#clip120)" d="M97.9826 448.996 L120.205 448.996 L120.205 450.987 L107.658 483.556 L102.774 483.556 L114.58 452.931 L97.9826 452.931 L97.9826 448.996 Z" fill="#000000" fill-rule="nonzero" fill-opacity="1"></path><path clip-path="url(#clip120)" d="M129.371 448.996 L147.728 448.996 L147.728 452.931 L133.654 452.931 L133.654 461.403 Q134.672 461.056 135.691 460.894 Q136.709 460.709 137.728 460.709 Q143.515 460.709 146.894 463.88 Q150.274 467.052 150.274 472.468 Q150.274 478.047 146.802 481.149 Q143.33 484.227 137.01 484.227 Q134.834 484.227 132.566 483.857 Q130.32 483.487 127.913 482.746 L127.913 478.047 Q129.996 479.181 132.219 479.737 Q134.441 480.292 136.918 480.292 Q140.922 480.292 143.26 478.186 Q145.598 476.079 145.598 472.468 Q145.598 468.857 143.26 466.751 Q140.922 464.644 136.918 464.644 Q135.043 464.644 133.168 465.061 Q131.316 465.477 129.371 466.357 L129.371 448.996 Z" fill="#000000" fill-rule="nonzero" fill-opacity="1"></path><path clip-path="url(#clip120)" d="M53.7467 172.356 L61.3856 172.356 L61.3856 145.99 L53.0754 147.657 L53.0754 143.398 L61.3393 141.731 L66.0152 141.731 L66.0152 172.356 L73.654 172.356 L73.654 176.291 L53.7467 176.291 L53.7467 172.356 Z" fill="#000000" fill-rule="nonzero" fill-opacity="1"></path><path clip-path="url(#clip120)" d="M83.0984 170.412 L87.9827 170.412 L87.9827 176.291 L83.0984 176.291 L83.0984 170.412 Z" fill="#000000" fill-rule="nonzero" fill-opacity="1"></path><path clip-path="url(#clip120)" d="M108.168 144.81 Q104.557 144.81 102.728 148.375 Q100.922 151.916 100.922 159.046 Q100.922 166.152 102.728 169.717 Q104.557 173.259 108.168 173.259 Q111.802 173.259 113.608 169.717 Q115.436 166.152 115.436 159.046 Q115.436 151.916 113.608 148.375 Q111.802 144.81 108.168 144.81 M108.168 141.106 Q113.978 141.106 117.033 145.713 Q120.112 150.296 120.112 159.046 Q120.112 167.773 117.033 172.379 Q113.978 176.962 108.168 176.962 Q102.358 176.962 99.2789 172.379 Q96.2234 167.773 96.2234 159.046 Q96.2234 150.296 99.2789 145.713 Q102.358 141.106 108.168 141.106 Z" fill="#000000" fill-rule="nonzero" fill-opacity="1"></path><path clip-path="url(#clip120)" d="M138.33 144.81 Q134.719 144.81 132.89 148.375 Q131.084 151.916 131.084 159.046 Q131.084 166.152 132.89 169.717 Q134.719 173.259 138.33 173.259 Q141.964 173.259 143.769 169.717 Q145.598 166.152 145.598 159.046 Q145.598 151.916 143.769 148.375 Q141.964 144.81 138.33 144.81 M138.33 141.106 Q144.14 141.106 147.195 145.713 Q150.274 150.296 150.274 159.046 Q150.274 167.773 147.195 172.379 Q144.14 176.962 138.33 176.962 Q132.519 176.962 129.441 172.379 Q126.385 167.773 126.385 159.046 Q126.385 150.296 129.441 145.713 Q132.519 141.106 138.33 141.106 Z" fill="#000000" fill-rule="nonzero" fill-opacity="1"></path><path clip-path="url(#clip120)" d="M1169.32 44.2197 Q1171.95 45.1109 1174.42 48.0275 Q1176.93 50.9442 1179.44 56.0483 L1187.75 72.576 L1178.96 72.576 L1171.22 57.061 Q1168.22 50.9847 1165.39 48.9997 Q1162.59 47.0148 1157.73 47.0148 L1148.82 47.0148 L1148.82 72.576 L1140.64 72.576 L1140.64 12.096 L1159.11 12.096 Q1169.48 12.096 1174.58 16.4305 Q1179.69 20.7649 1179.69 29.5149 Q1179.69 35.2267 1177.01 38.994 Q1174.38 42.7613 1169.32 44.2197 M1148.82 18.8205 L1148.82 40.2903 L1159.11 40.2903 Q1165.02 40.2903 1168.02 37.5762 Q1171.06 34.8216 1171.06 29.5149 Q1171.06 24.2082 1168.02 21.5346 Q1165.02 18.8205 1159.11 18.8205 L1148.82 18.8205 Z" fill="#000000" fill-rule="nonzero" fill-opacity="1"></path><path clip-path="url(#clip120)" d="M1226.96 44.2197 Q1229.59 45.1109 1232.06 48.0275 Q1234.58 50.9442 1237.09 56.0483 L1245.39 72.576 L1236.6 72.576 L1228.86 57.061 Q1225.87 50.9847 1223.03 48.9997 Q1220.24 47.0148 1215.37 47.0148 L1206.46 47.0148 L1206.46 72.576 L1198.28 72.576 L1198.28 12.096 L1216.75 12.096 Q1227.12 12.096 1232.23 16.4305 Q1237.33 20.7649 1237.33 29.5149 Q1237.33 35.2267 1234.66 38.994 Q1232.02 42.7613 1226.96 44.2197 M1206.46 18.8205 L1206.46 40.2903 L1216.75 40.2903 Q1222.67 40.2903 1225.66 37.5762 Q1228.7 34.8216 1228.7 29.5149 Q1228.7 24.2082 1225.66 21.5346 Q1222.67 18.8205 1216.75 18.8205 L1206.46 18.8205 Z" fill="#000000" fill-rule="nonzero" fill-opacity="1"></path><path clip-path="url(#clip120)" d="M1255.92 12.096 L1268.12 12.096 L1283.55 53.2532 L1299.07 12.096 L1311.26 12.096 L1311.26 72.576 L1303.28 72.576 L1303.28 19.4686 L1287.68 60.9499 L1279.46 60.9499 L1263.86 19.4686 L1263.86 72.576 L1255.92 72.576 L1255.92 12.096 Z" fill="#000000" fill-rule="nonzero" fill-opacity="1"></path><path clip-path="url(#clip120)" d="M1363.76 14.0809 L1363.76 22.0612 Q1359.1 19.8332 1354.97 18.7395 Q1350.84 17.6457 1346.99 17.6457 Q1340.3 17.6457 1336.66 20.2383 Q1333.05 22.8309 1333.05 27.611 Q1333.05 31.6214 1335.44 33.6873 Q1337.87 35.7128 1344.6 36.9686 L1349.54 37.9813 Q1358.7 39.7232 1363.03 44.1387 Q1367.41 48.5136 1367.41 55.8863 Q1367.41 64.6767 1361.49 69.2137 Q1355.62 73.7508 1344.23 73.7508 Q1339.94 73.7508 1335.08 72.7785 Q1330.26 71.8063 1325.07 69.9024 L1325.07 61.4765 Q1330.06 64.2716 1334.84 65.6895 Q1339.62 67.1073 1344.23 67.1073 Q1351.24 67.1073 1355.05 64.3527 Q1358.86 61.598 1358.86 56.4939 Q1358.86 52.0379 1356.1 49.5264 Q1353.39 47.0148 1347.15 45.759 L1342.17 44.7868 Q1333.01 42.9639 1328.92 39.075 Q1324.83 35.1862 1324.83 28.2591 Q1324.83 20.2383 1330.46 15.6203 Q1336.13 11.0023 1346.06 11.0023 Q1350.31 11.0023 1354.73 11.7719 Q1359.14 12.5416 1363.76 14.0809 Z" fill="#000000" fill-rule="nonzero" fill-opacity="1"></path><polyline clip-path="url(#clip122)" style="stroke:#009af9; stroke-linecap:round; stroke-linejoin:round; stroke-width:12; stroke-opacity:1; fill:none" points="247.59,896.447 251.677,853.43 255.765,809.513 259.853,765.143 263.94,720.792 268.028,676.939 272.116,634.049 276.203,592.554 280.291,552.833 284.379,515.204 288.467,479.908 292.554,447.114 296.642,416.915 300.73,389.334 304.817,364.337 308.905,341.841 312.993,321.721 317.08,303.83 321.168,288.001 325.256,274.058 329.344,261.825 333.431,251.128 337.519,241.801 341.607,233.689 345.694,226.647 349.782,220.545 353.87,215.263 357.957,210.696 362.045,206.75 366.133,203.341 370.221,200.396 374.308,197.851 378.396,195.651 382.484,193.748 386.571,192.099 390.659,190.668 394.747,189.424 398.834,188.341 402.922,187.395 407.01,186.566 411.098,185.838 415.185,185.196 419.273,184.627 423.361,184.122 427.448,183.67 431.536,183.264 435.624,182.897 439.712,182.564 443.799,182.26 447.887,181.981 451.975,181.722 456.062,181.482 460.15,181.258 464.238,181.047 468.325,180.847 472.413,180.658 476.501,180.477 480.589,180.304 484.676,180.137 488.764,179.975 492.852,179.819 496.939,179.667 501.027,179.519 505.115,179.374 509.202,179.232 513.29,179.092 517.378,178.955 521.466,178.82 525.553,178.687 529.641,178.556 533.729,178.427 537.816,178.299 541.904,178.172 545.992,178.047 550.079,177.922 554.167,177.799 558.255,177.677 562.343,177.557 566.43,177.437 570.518,177.318 574.606,177.2 578.693,177.082 582.781,176.966 586.869,176.851 590.956,176.736 595.044,176.622 599.132,176.509 603.22,176.397 607.307,176.285 611.395,176.174 615.483,176.064 619.57,175.955 623.658,175.847 627.746,175.739 631.833,175.632 635.921,175.525 640.009,175.42 644.097,175.315 648.184,175.21 652.272,175.106 656.36,175.003 660.447,174.901 664.535,174.8 668.623,174.699 672.711,174.598 676.798,174.498 680.886,174.399 684.974,174.301 689.061,174.203 693.149,174.106 697.237,174.01 701.324,173.914 705.412,173.818 709.5,173.724 713.588,173.63 717.675,173.536 721.763,173.443 725.851,173.351 729.938,173.26 734.026,173.168 738.114,173.078 742.201,172.988 746.289,172.899 750.377,172.81 754.465,172.722 758.552,172.634 762.64,172.547 766.728,172.461 770.815,172.375 774.903,172.289 778.991,172.205 783.078,172.12 787.166,172.037 791.254,171.953 795.342,171.871 799.429,171.789 803.517,171.707 807.605,171.626 811.692,171.545 815.78,171.465 819.868,171.386 823.955,171.307 828.043,171.228 832.131,171.15 836.219,171.073 840.306,170.996 844.394,170.919 848.482,170.843 852.569,170.768 856.657,170.693 860.745,170.618 864.832,170.544 868.92,170.471 873.008,170.398 877.096,170.325 881.183,170.253 885.271,170.181 889.359,170.11 893.446,170.039 897.534,169.969 901.622,169.899 905.71,169.829 909.797,169.76 913.885,169.692 917.973,169.623 922.06,169.556 926.148,169.489 930.236,169.422 934.323,169.355 938.411,169.289 942.499,169.224 946.587,169.159 950.674,169.094 954.762,169.03 958.85,168.966 962.937,168.902 967.025,168.839 971.113,168.777 975.2,168.714 979.288,168.653 983.376,168.591 987.464,168.53 991.551,168.469 995.639,168.409 999.727,168.349 1003.81,168.29 1007.9,168.23 1011.99,168.172 1016.08,168.113 1020.17,168.055 1024.25,167.998 1028.34,167.94 1032.43,167.883 1036.52,167.827 1040.6,167.771 1044.69,167.715 1048.78,167.659 1052.87,167.604 1056.95,167.55 1061.04,167.495 1065.13,167.441 1069.22,167.387 1073.31,167.334 1077.39,167.281 1081.48,167.228 1085.57,167.176 1089.66,167.124 1093.74,167.072 1097.83,167.021 1101.92,166.97 1106.01,166.919 1110.09,166.869 1114.18,166.819 1118.27,166.769 1122.36,166.72 1126.45,166.671 1130.53,166.622 1134.62,166.573 1138.71,166.525 1142.8,166.477 1146.88,166.43 1150.97,166.383 1155.06,166.336 1159.15,166.289 1163.23,166.243 1167.32,166.197 1171.41,166.151 1175.5,166.106 1179.59,166.06 1183.67,166.015 1187.76,165.971 1191.85,165.927 1195.94,165.883 1200.02,165.839 1204.11,165.795 1208.2,165.752 1212.29,165.709 1216.37,165.667 1220.46,165.624 1224.55,165.582 1228.64,165.54 1232.73,165.499 1236.81,165.458 1240.9,165.417 1244.99,165.376 1249.08,165.335 1253.16,165.295 1257.25,165.255 1261.34,165.215 1265.43,165.176 1269.51,165.137 1273.6,165.098 1277.69,165.059 1281.78,165.02 1285.87,164.982 1289.95,164.944 1294.04,164.906 1298.13,164.869 1302.22,164.832 1306.3,164.795 1310.39,164.758 1314.48,164.721 1318.57,164.685 1322.66,164.649 1326.74,164.613 1330.83,164.577 1334.92,164.542 1339.01,164.507 1343.09,164.472 1347.18,164.437 1351.27,164.403 1355.36,164.368 1359.44,164.334 1363.53,164.3 1367.62,164.267 1371.71,164.233 1375.8,164.2 1379.88,164.167 1383.97,164.134 1388.06,164.102 1392.15,164.069 1396.23,164.037 1400.32,164.005 1404.41,163.973 1408.5,163.942 1412.58,163.911 1416.67,163.879 1420.76,163.848 1424.85,163.818 1428.94,163.787 1433.02,163.757 1437.11,163.727 1441.2,163.697 1445.29,163.667 1449.37,163.637 1453.46,163.608 1457.55,163.579 1461.64,163.55 1465.72,163.521 1469.81,163.492 1473.9,163.464 1477.99,163.435 1482.08,163.407 1486.16,163.379 1490.25,163.351 1494.34,163.324 1498.43,163.296 1502.51,163.269 1506.6,163.242 1510.69,163.215 1514.78,163.188 1518.86,163.162 1522.95,163.136 1527.04,163.109 1531.13,163.083 1535.22,163.057 1539.3,163.032 1543.39,163.006 1547.48,162.981 1551.57,162.955 1555.65,162.93 1559.74,162.906 1563.83,162.881 1567.92,162.856 1572,162.832 1576.09,162.807 1580.18,162.783 1584.27,162.759 1588.36,162.736 1592.44,162.712 1596.53,162.688 1600.62,162.665 1604.71,162.642 1608.79,162.619 1612.88,162.596 1616.97,162.573 1621.06,162.55 1625.15,162.528 1629.23,162.506 1633.32,162.483 1637.41,162.461 1641.5,162.439 1645.58,162.418 1649.67,162.396 1653.76,162.374 1657.85,162.353 1661.93,162.332 1666.02,162.311 1670.11,162.29 1674.2,162.269 1678.29,162.248 1682.37,162.228 1686.46,162.207 1690.55,162.187 1694.64,162.167 1698.72,162.147 1702.81,162.127 1706.9,162.107 1710.99,162.087 1715.07,162.068 1719.16,162.048 1723.25,162.029 1727.34,162.01 1731.43,161.991 1735.51,161.972 1739.6,161.953 1743.69,161.934 1747.78,161.916 1751.86,161.897 1755.95,161.879 1760.04,161.861 1764.13,161.843 1768.21,161.825 1772.3,161.807 1776.39,161.789 1780.48,161.772 1784.57,161.754 1788.65,161.737 1792.74,161.719 1796.83,161.702 1800.92,161.685 1805,161.668 1809.09,161.651 1813.18,161.634 1817.27,161.618 1821.35,161.601 1825.44,161.585 1829.53,161.568 1833.62,161.552 1837.71,161.536 1841.79,161.52 1845.88,161.504 1849.97,161.488 1854.06,161.472 1858.14,161.457 1862.23,161.441 1866.32,161.426 1870.41,161.41 1874.49,161.395 1878.58,161.38 1882.67,161.365 1886.76,161.35 1890.85,161.335 1894.93,161.321 1899.02,161.306 1903.11,161.291 1907.2,161.277 1911.28,161.262 1915.37,161.248 1919.46,161.234 1923.55,161.22 1927.63,161.206 1931.72,161.192 1935.81,161.178 1939.9,161.164 1943.99,161.151 1948.07,161.137 1952.16,161.123 1956.25,161.11 1960.34,161.097 1964.42,161.084 1968.51,161.07 1972.6,161.057 1976.69,161.044 1980.78,161.031 1984.86,161.019 1988.95,161.006 1993.04,160.993 1997.13,160.981 2001.21,160.968 2005.3,160.956 2009.39,160.943 2013.48,160.931 2017.56,160.919 2021.65,160.907 2025.74,160.895 2029.83,160.883 2033.92,160.871 2038,160.859 2042.09,160.847 2046.18,160.836 2050.27,160.824 2054.35,160.813 2058.44,160.801 2062.53,160.79 2066.62,160.778 2070.7,160.767 2074.79,160.756 2078.88,160.745 2082.97,160.734 2087.06,160.723 2091.14,160.712 2095.23,160.701 2099.32,160.691 2103.41,160.68 2107.49,160.669 2111.58,160.659 2115.67,160.648 2119.76,160.638 2123.84,160.628 2127.93,160.617 2132.02,160.607 2136.11,160.597 2140.2,160.587 2144.28,160.577 2148.37,160.567 2152.46,160.557 2156.55,160.547 2160.63,160.538 2164.72,160.528 2168.81,160.518 2172.9,160.509 2176.98,160.499 2181.07,160.49 2185.16,160.48 2189.25,160.471 2193.34,160.462 2197.42,160.453 2201.51,160.444 2205.6,160.434 2209.69,160.425 2213.77,160.416 2217.86,160.408 2221.95,160.399 2226.04,160.39 2230.12,160.381 2234.21,160.372 2238.3,160.364 2242.39,160.355 2246.48,160.347 2250.56,160.338 2254.65,160.33 2258.74,160.321 2262.83,160.313 2266.91,160.305 2271,160.297 2275.09,160.288 2279.18,160.28 2283.26,160.272 2287.35,160.264 2291.44,160.256 "></polyline>
<polyline clip-path="url(#clip122)" style="stroke:#e26f46; stroke-linecap:round; stroke-linejoin:round; stroke-width:12; stroke-opacity:1; fill:none" points="247.59,1019.35 251.677,1059.68 255.765,1095.28 259.853,1126.68 263.94,1154.37 268.028,1178.75 272.116,1200.22 276.203,1219.11 280.291,1235.71 284.379,1250.3 288.467,1263.11 292.554,1274.36 296.642,1284.23 300.73,1292.89 304.817,1300.49 308.905,1307.16 312.993,1313.02 317.08,1318.16 321.168,1322.68 325.256,1326.65 329.344,1330.14 333.431,1333.22 337.519,1335.94 341.607,1338.33 345.694,1340.45 349.782,1342.33 353.87,1344 357.957,1345.48 362.045,1346.8 366.133,1347.98 370.221,1349.04 374.308,1349.99 378.396,1350.84 382.484,1351.61 386.571,1352.31 390.659,1352.95 394.747,1353.53 398.834,1354.07 402.922,1354.56 407.01,1355.01 411.098,1355.43 415.185,1355.83 419.273,1356.19 423.361,1356.54 427.448,1356.86 431.536,1357.17 435.624,1357.46 439.712,1357.74 443.799,1358 447.887,1358.26 451.975,1358.5 456.062,1358.74 460.15,1358.97 464.238,1359.19 468.325,1359.41 472.413,1359.62 476.501,1359.82 480.589,1360.03 484.676,1360.22 488.764,1360.42 492.852,1360.61 496.939,1360.79 501.027,1360.98 505.115,1361.16 509.202,1361.34 513.29,1361.51 517.378,1361.69 521.466,1361.86 525.553,1362.03 529.641,1362.2 533.729,1362.37 537.816,1362.53 541.904,1362.7 545.992,1362.86 550.079,1363.02 554.167,1363.18 558.255,1363.34 562.343,1363.5 566.43,1363.66 570.518,1363.81 574.606,1363.97 578.693,1364.12 582.781,1364.27 586.869,1364.42 590.956,1364.57 595.044,1364.72 599.132,1364.87 603.22,1365.01 607.307,1365.16 611.395,1365.3 615.483,1365.45 619.57,1365.59 623.658,1365.73 627.746,1365.87 631.833,1366.01 635.921,1366.15 640.009,1366.29 644.097,1366.43 648.184,1366.57 652.272,1366.7 656.36,1366.84 660.447,1366.97 664.535,1367.1 668.623,1367.24 672.711,1367.37 676.798,1367.5 680.886,1367.63 684.974,1367.76 689.061,1367.88 693.149,1368.01 697.237,1368.14 701.324,1368.26 705.412,1368.39 709.5,1368.51 713.588,1368.64 717.675,1368.76 721.763,1368.88 725.851,1369 729.938,1369.12 734.026,1369.24 738.114,1369.36 742.201,1369.48 746.289,1369.6 750.377,1369.71 754.465,1369.83 758.552,1369.94 762.64,1370.06 766.728,1370.17 770.815,1370.29 774.903,1370.4 778.991,1370.51 783.078,1370.62 787.166,1370.73 791.254,1370.84 795.342,1370.95 799.429,1371.06 803.517,1371.16 807.605,1371.27 811.692,1371.38 815.78,1371.48 819.868,1371.59 823.955,1371.69 828.043,1371.79 832.131,1371.9 836.219,1372 840.306,1372.1 844.394,1372.2 848.482,1372.3 852.569,1372.4 856.657,1372.5 860.745,1372.6 864.832,1372.7 868.92,1372.79 873.008,1372.89 877.096,1372.99 881.183,1373.08 885.271,1373.18 889.359,1373.27 893.446,1373.36 897.534,1373.46 901.622,1373.55 905.71,1373.64 909.797,1373.73 913.885,1373.82 917.973,1373.91 922.06,1374 926.148,1374.09 930.236,1374.18 934.323,1374.27 938.411,1374.35 942.499,1374.44 946.587,1374.53 950.674,1374.61 954.762,1374.7 958.85,1374.78 962.937,1374.87 967.025,1374.95 971.113,1375.03 975.2,1375.11 979.288,1375.2 983.376,1375.28 987.464,1375.36 991.551,1375.44 995.639,1375.52 999.727,1375.6 1003.81,1375.68 1007.9,1375.76 1011.99,1375.83 1016.08,1375.91 1020.17,1375.99 1024.25,1376.06 1028.34,1376.14 1032.43,1376.22 1036.52,1376.29 1040.6,1376.36 1044.69,1376.44 1048.78,1376.51 1052.87,1376.59 1056.95,1376.66 1061.04,1376.73 1065.13,1376.8 1069.22,1376.87 1073.31,1376.94 1077.39,1377.01 1081.48,1377.08 1085.57,1377.15 1089.66,1377.22 1093.74,1377.29 1097.83,1377.36 1101.92,1377.43 1106.01,1377.49 1110.09,1377.56 1114.18,1377.63 1118.27,1377.69 1122.36,1377.76 1126.45,1377.82 1130.53,1377.89 1134.62,1377.95 1138.71,1378.02 1142.8,1378.08 1146.88,1378.14 1150.97,1378.21 1155.06,1378.27 1159.15,1378.33 1163.23,1378.39 1167.32,1378.45 1171.41,1378.52 1175.5,1378.58 1179.59,1378.64 1183.67,1378.7 1187.76,1378.75 1191.85,1378.81 1195.94,1378.87 1200.02,1378.93 1204.11,1378.99 1208.2,1379.05 1212.29,1379.1 1216.37,1379.16 1220.46,1379.22 1224.55,1379.27 1228.64,1379.33 1232.73,1379.38 1236.81,1379.44 1240.9,1379.49 1244.99,1379.55 1249.08,1379.6 1253.16,1379.65 1257.25,1379.71 1261.34,1379.76 1265.43,1379.81 1269.51,1379.87 1273.6,1379.92 1277.69,1379.97 1281.78,1380.02 1285.87,1380.07 1289.95,1380.12 1294.04,1380.17 1298.13,1380.22 1302.22,1380.27 1306.3,1380.32 1310.39,1380.37 1314.48,1380.42 1318.57,1380.47 1322.66,1380.52 1326.74,1380.56 1330.83,1380.61 1334.92,1380.66 1339.01,1380.71 1343.09,1380.75 1347.18,1380.8 1351.27,1380.84 1355.36,1380.89 1359.44,1380.94 1363.53,1380.98 1367.62,1381.03 1371.71,1381.07 1375.8,1381.11 1379.88,1381.16 1383.97,1381.2 1388.06,1381.25 1392.15,1381.29 1396.23,1381.33 1400.32,1381.37 1404.41,1381.42 1408.5,1381.46 1412.58,1381.5 1416.67,1381.54 1420.76,1381.58 1424.85,1381.62 1428.94,1381.67 1433.02,1381.71 1437.11,1381.75 1441.2,1381.79 1445.29,1381.83 1449.37,1381.87 1453.46,1381.9 1457.55,1381.94 1461.64,1381.98 1465.72,1382.02 1469.81,1382.06 1473.9,1382.1 1477.99,1382.14 1482.08,1382.17 1486.16,1382.21 1490.25,1382.25 1494.34,1382.28 1498.43,1382.32 1502.51,1382.36 1506.6,1382.39 1510.69,1382.43 1514.78,1382.47 1518.86,1382.5 1522.95,1382.54 1527.04,1382.57 1531.13,1382.61 1535.22,1382.64 1539.3,1382.68 1543.39,1382.71 1547.48,1382.74 1551.57,1382.78 1555.65,1382.81 1559.74,1382.84 1563.83,1382.88 1567.92,1382.91 1572,1382.94 1576.09,1382.97 1580.18,1383.01 1584.27,1383.04 1588.36,1383.07 1592.44,1383.1 1596.53,1383.13 1600.62,1383.17 1604.71,1383.2 1608.79,1383.23 1612.88,1383.26 1616.97,1383.29 1621.06,1383.32 1625.15,1383.35 1629.23,1383.38 1633.32,1383.41 1637.41,1383.44 1641.5,1383.47 1645.58,1383.5 1649.67,1383.53 1653.76,1383.55 1657.85,1383.58 1661.93,1383.61 1666.02,1383.64 1670.11,1383.67 1674.2,1383.7 1678.29,1383.72 1682.37,1383.75 1686.46,1383.78 1690.55,1383.81 1694.64,1383.83 1698.72,1383.86 1702.81,1383.89 1706.9,1383.91 1710.99,1383.94 1715.07,1383.97 1719.16,1383.99 1723.25,1384.02 1727.34,1384.04 1731.43,1384.07 1735.51,1384.09 1739.6,1384.12 1743.69,1384.14 1747.78,1384.17 1751.86,1384.19 1755.95,1384.22 1760.04,1384.24 1764.13,1384.27 1768.21,1384.29 1772.3,1384.31 1776.39,1384.34 1780.48,1384.36 1784.57,1384.39 1788.65,1384.41 1792.74,1384.43 1796.83,1384.46 1800.92,1384.48 1805,1384.5 1809.09,1384.52 1813.18,1384.55 1817.27,1384.57 1821.35,1384.59 1825.44,1384.61 1829.53,1384.63 1833.62,1384.66 1837.71,1384.68 1841.79,1384.7 1845.88,1384.72 1849.97,1384.74 1854.06,1384.76 1858.14,1384.78 1862.23,1384.8 1866.32,1384.83 1870.41,1384.85 1874.49,1384.87 1878.58,1384.89 1882.67,1384.91 1886.76,1384.93 1890.85,1384.95 1894.93,1384.97 1899.02,1384.99 1903.11,1385.01 1907.2,1385.03 1911.28,1385.04 1915.37,1385.06 1919.46,1385.08 1923.55,1385.1 1927.63,1385.12 1931.72,1385.14 1935.81,1385.16 1939.9,1385.18 1943.99,1385.19 1948.07,1385.21 1952.16,1385.23 1956.25,1385.25 1960.34,1385.27 1964.42,1385.28 1968.51,1385.3 1972.6,1385.32 1976.69,1385.34 1980.78,1385.35 1984.86,1385.37 1988.95,1385.39 1993.04,1385.41 1997.13,1385.42 2001.21,1385.44 2005.3,1385.46 2009.39,1385.47 2013.48,1385.49 2017.56,1385.51 2021.65,1385.52 2025.74,1385.54 2029.83,1385.55 2033.92,1385.57 2038,1385.59 2042.09,1385.6 2046.18,1385.62 2050.27,1385.63 2054.35,1385.65 2058.44,1385.66 2062.53,1385.68 2066.62,1385.69 2070.7,1385.71 2074.79,1385.72 2078.88,1385.74 2082.97,1385.75 2087.06,1385.77 2091.14,1385.78 2095.23,1385.8 2099.32,1385.81 2103.41,1385.83 2107.49,1385.84 2111.58,1385.85 2115.67,1385.87 2119.76,1385.88 2123.84,1385.9 2127.93,1385.91 2132.02,1385.92 2136.11,1385.94 2140.2,1385.95 2144.28,1385.96 2148.37,1385.98 2152.46,1385.99 2156.55,1386 2160.63,1386.02 2164.72,1386.03 2168.81,1386.04 2172.9,1386.06 2176.98,1386.07 2181.07,1386.08 2185.16,1386.09 2189.25,1386.11 2193.34,1386.12 2197.42,1386.13 2201.51,1386.14 2205.6,1386.16 2209.69,1386.17 2213.77,1386.18 2217.86,1386.19 2221.95,1386.2 2226.04,1386.22 2230.12,1386.23 2234.21,1386.24 2238.3,1386.25 2242.39,1386.26 2246.48,1386.27 2250.56,1386.29 2254.65,1386.3 2258.74,1386.31 2262.83,1386.32 2266.91,1386.33 2271,1386.34 2275.09,1386.35 2279.18,1386.36 2283.26,1386.37 2287.35,1386.38 2291.44,1386.4 "></polyline>
<polyline clip-path="url(#clip122)" style="stroke:#3da44d; stroke-linecap:round; stroke-linejoin:round; stroke-width:12; stroke-opacity:1; fill:none" points="247.59,1265.16 251.677,1259.88 255.765,1255.37 259.853,1251.53 263.94,1248.3 268.028,1245.59 272.116,1243.35 276.203,1241.51 280.291,1240.03 284.379,1238.86 288.467,1237.96 292.554,1237.3 296.642,1236.85 300.73,1236.58 304.817,1236.47 308.905,1236.5 312.993,1236.64 317.08,1236.89 321.168,1237.23 325.256,1237.65 329.344,1238.13 333.431,1238.67 337.519,1239.27 341.607,1239.9 345.694,1240.57 349.782,1241.27 353.87,1241.99 357.957,1242.74 362.045,1243.51 366.133,1244.29 370.221,1245.09 374.308,1245.9 378.396,1246.71 382.484,1247.53 386.571,1248.36 390.659,1249.19 394.747,1250.02 398.834,1250.86 402.922,1251.7 407.01,1252.53 411.098,1253.37 415.185,1254.2 419.273,1255.03 423.361,1255.86 427.448,1256.69 431.536,1257.52 435.624,1258.34 439.712,1259.15 443.799,1259.97 447.887,1260.78 451.975,1261.59 456.062,1262.39 460.15,1263.19 464.238,1263.98 468.325,1264.77 472.413,1265.56 476.501,1266.34 480.589,1267.11 484.676,1267.88 488.764,1268.65 492.852,1269.41 496.939,1270.17 501.027,1270.92 505.115,1271.67 509.202,1272.42 513.29,1273.15 517.378,1273.89 521.466,1274.62 525.553,1275.34 529.641,1276.07 533.729,1276.78 537.816,1277.49 541.904,1278.2 545.992,1278.9 550.079,1279.6 554.167,1280.3 558.255,1280.98 562.343,1281.67 566.43,1282.35 570.518,1283.03 574.606,1283.7 578.693,1284.37 582.781,1285.03 586.869,1285.69 590.956,1286.34 595.044,1286.99 599.132,1287.64 603.22,1288.28 607.307,1288.92 611.395,1289.55 615.483,1290.18 619.57,1290.81 623.658,1291.43 627.746,1292.05 631.833,1292.66 635.921,1293.27 640.009,1293.88 644.097,1294.48 648.184,1295.08 652.272,1295.67 656.36,1296.26 660.447,1296.85 664.535,1297.43 668.623,1298.01 672.711,1298.59 676.798,1299.16 680.886,1299.73 684.974,1300.29 689.061,1300.85 693.149,1301.41 697.237,1301.96 701.324,1302.51 705.412,1303.06 709.5,1303.6 713.588,1304.14 717.675,1304.68 721.763,1305.21 725.851,1305.74 729.938,1306.27 734.026,1306.79 738.114,1307.31 742.201,1307.82 746.289,1308.33 750.377,1308.84 754.465,1309.35 758.552,1309.85 762.64,1310.35 766.728,1310.85 770.815,1311.34 774.903,1311.83 778.991,1312.32 783.078,1312.8 787.166,1313.28 791.254,1313.76 795.342,1314.23 799.429,1314.7 803.517,1315.17 807.605,1315.64 811.692,1316.1 815.78,1316.56 819.868,1317.01 823.955,1317.47 828.043,1317.92 832.131,1318.37 836.219,1318.81 840.306,1319.25 844.394,1319.69 848.482,1320.13 852.569,1320.56 856.657,1320.99 860.745,1321.42 864.832,1321.84 868.92,1322.27 873.008,1322.69 877.096,1323.1 881.183,1323.52 885.271,1323.93 889.359,1324.34 893.446,1324.74 897.534,1325.15 901.622,1325.55 905.71,1325.95 909.797,1326.34 913.885,1326.74 917.973,1327.13 922.06,1327.52 926.148,1327.9 930.236,1328.29 934.323,1328.67 938.411,1329.05 942.499,1329.42 946.587,1329.8 950.674,1330.17 954.762,1330.54 958.85,1330.9 962.937,1331.27 967.025,1331.63 971.113,1331.99 975.2,1332.35 979.288,1332.7 983.376,1333.05 987.464,1333.4 991.551,1333.75 995.639,1334.1 999.727,1334.44 1003.81,1334.78 1007.9,1335.12 1011.99,1335.46 1016.08,1335.8 1020.17,1336.13 1024.25,1336.46 1028.34,1336.79 1032.43,1337.11 1036.52,1337.44 1040.6,1337.76 1044.69,1338.08 1048.78,1338.4 1052.87,1338.72 1056.95,1339.03 1061.04,1339.34 1065.13,1339.65 1069.22,1339.96 1073.31,1340.27 1077.39,1340.57 1081.48,1340.87 1085.57,1341.18 1089.66,1341.47 1093.74,1341.77 1097.83,1342.07 1101.92,1342.36 1106.01,1342.65 1110.09,1342.94 1114.18,1343.23 1118.27,1343.51 1122.36,1343.79 1126.45,1344.08 1130.53,1344.36 1134.62,1344.64 1138.71,1344.91 1142.8,1345.19 1146.88,1345.46 1150.97,1345.73 1155.06,1346 1159.15,1346.27 1163.23,1346.53 1167.32,1346.8 1171.41,1347.06 1175.5,1347.32 1179.59,1347.58 1183.67,1347.84 1187.76,1348.09 1191.85,1348.35 1195.94,1348.6 1200.02,1348.85 1204.11,1349.1 1208.2,1349.35 1212.29,1349.6 1216.37,1349.84 1220.46,1350.08 1224.55,1350.33 1228.64,1350.57 1232.73,1350.8 1236.81,1351.04 1240.9,1351.28 1244.99,1351.51 1249.08,1351.74 1253.16,1351.98 1257.25,1352.2 1261.34,1352.43 1265.43,1352.66 1269.51,1352.88 1273.6,1353.11 1277.69,1353.33 1281.78,1353.55 1285.87,1353.77 1289.95,1353.99 1294.04,1354.21 1298.13,1354.42 1302.22,1354.64 1306.3,1354.85 1310.39,1355.06 1314.48,1355.27 1318.57,1355.48 1322.66,1355.69 1326.74,1355.89 1330.83,1356.1 1334.92,1356.3 1339.01,1356.5 1343.09,1356.7 1347.18,1356.9 1351.27,1357.1 1355.36,1357.3 1359.44,1357.49 1363.53,1357.69 1367.62,1357.88 1371.71,1358.07 1375.8,1358.26 1379.88,1358.45 1383.97,1358.64 1388.06,1358.83 1392.15,1359.01 1396.23,1359.2 1400.32,1359.38 1404.41,1359.56 1408.5,1359.75 1412.58,1359.93 1416.67,1360.1 1420.76,1360.28 1424.85,1360.46 1428.94,1360.63 1433.02,1360.81 1437.11,1360.98 1441.2,1361.15 1445.29,1361.33 1449.37,1361.5 1453.46,1361.66 1457.55,1361.83 1461.64,1362 1465.72,1362.16 1469.81,1362.33 1473.9,1362.49 1477.99,1362.66 1482.08,1362.82 1486.16,1362.98 1490.25,1363.14 1494.34,1363.3 1498.43,1363.45 1502.51,1363.61 1506.6,1363.76 1510.69,1363.92 1514.78,1364.07 1518.86,1364.23 1522.95,1364.38 1527.04,1364.53 1531.13,1364.68 1535.22,1364.83 1539.3,1364.97 1543.39,1365.12 1547.48,1365.27 1551.57,1365.41 1555.65,1365.55 1559.74,1365.7 1563.83,1365.84 1567.92,1365.98 1572,1366.12 1576.09,1366.26 1580.18,1366.4 1584.27,1366.54 1588.36,1366.67 1592.44,1366.81 1596.53,1366.94 1600.62,1367.08 1604.71,1367.21 1608.79,1367.35 1612.88,1367.48 1616.97,1367.61 1621.06,1367.74 1625.15,1367.87 1629.23,1368 1633.32,1368.12 1637.41,1368.25 1641.5,1368.38 1645.58,1368.5 1649.67,1368.62 1653.76,1368.75 1657.85,1368.87 1661.93,1368.99 1666.02,1369.11 1670.11,1369.23 1674.2,1369.35 1678.29,1369.47 1682.37,1369.59 1686.46,1369.71 1690.55,1369.83 1694.64,1369.94 1698.72,1370.06 1702.81,1370.17 1706.9,1370.28 1710.99,1370.4 1715.07,1370.51 1719.16,1370.62 1723.25,1370.73 1727.34,1370.84 1731.43,1370.95 1735.51,1371.06 1739.6,1371.17 1743.69,1371.28 1747.78,1371.38 1751.86,1371.49 1755.95,1371.59 1760.04,1371.7 1764.13,1371.8 1768.21,1371.91 1772.3,1372.01 1776.39,1372.11 1780.48,1372.21 1784.57,1372.31 1788.65,1372.41 1792.74,1372.51 1796.83,1372.61 1800.92,1372.71 1805,1372.81 1809.09,1372.9 1813.18,1373 1817.27,1373.1 1821.35,1373.19 1825.44,1373.28 1829.53,1373.38 1833.62,1373.47 1837.71,1373.56 1841.79,1373.66 1845.88,1373.75 1849.97,1373.84 1854.06,1373.93 1858.14,1374.02 1862.23,1374.11 1866.32,1374.2 1870.41,1374.29 1874.49,1374.37 1878.58,1374.46 1882.67,1374.55 1886.76,1374.63 1890.85,1374.72 1894.93,1374.8 1899.02,1374.89 1903.11,1374.97 1907.2,1375.05 1911.28,1375.14 1915.37,1375.22 1919.46,1375.3 1923.55,1375.38 1927.63,1375.46 1931.72,1375.54 1935.81,1375.62 1939.9,1375.7 1943.99,1375.78 1948.07,1375.86 1952.16,1375.93 1956.25,1376.01 1960.34,1376.09 1964.42,1376.16 1968.51,1376.24 1972.6,1376.31 1976.69,1376.39 1980.78,1376.46 1984.86,1376.54 1988.95,1376.61 1993.04,1376.68 1997.13,1376.76 2001.21,1376.83 2005.3,1376.9 2009.39,1376.97 2013.48,1377.04 2017.56,1377.11 2021.65,1377.18 2025.74,1377.25 2029.83,1377.32 2033.92,1377.39 2038,1377.45 2042.09,1377.52 2046.18,1377.59 2050.27,1377.65 2054.35,1377.72 2058.44,1377.79 2062.53,1377.85 2066.62,1377.92 2070.7,1377.98 2074.79,1378.04 2078.88,1378.11 2082.97,1378.17 2087.06,1378.23 2091.14,1378.3 2095.23,1378.36 2099.32,1378.42 2103.41,1378.48 2107.49,1378.54 2111.58,1378.6 2115.67,1378.66 2119.76,1378.72 2123.84,1378.78 2127.93,1378.84 2132.02,1378.9 2136.11,1378.96 2140.2,1379.02 2144.28,1379.07 2148.37,1379.13 2152.46,1379.19 2156.55,1379.24 2160.63,1379.3 2164.72,1379.36 2168.81,1379.41 2172.9,1379.47 2176.98,1379.52 2181.07,1379.57 2185.16,1379.63 2189.25,1379.68 2193.34,1379.74 2197.42,1379.79 2201.51,1379.84 2205.6,1379.89 2209.69,1379.94 2213.77,1380 2217.86,1380.05 2221.95,1380.1 2226.04,1380.15 2230.12,1380.2 2234.21,1380.25 2238.3,1380.3 2242.39,1380.35 2246.48,1380.4 2250.56,1380.45 2254.65,1380.49 2258.74,1380.54 2262.83,1380.59 2266.91,1380.64 2271,1380.68 2275.09,1380.73 2279.18,1380.78 2283.26,1380.82 2287.35,1380.87 2291.44,1380.92 "></polyline>
<path clip-path="url(#clip120)" d="M258.49 374.156 L506.805 374.156 L506.805 166.796 L258.49 166.796  Z" fill="#ffffff" fill-rule="evenodd" fill-opacity="1"></path>
<polyline clip-path="url(#clip120)" style="stroke:#000000; stroke-linecap:round; stroke-linejoin:round; stroke-width:4; stroke-opacity:1; fill:none" points="258.49,374.156 506.805,374.156 506.805,166.796 258.49,166.796 258.49,374.156 "></polyline>
<polyline clip-path="url(#clip120)" style="stroke:#009af9; stroke-linecap:round; stroke-linejoin:round; stroke-width:12; stroke-opacity:1; fill:none" points="282.562,218.636 426.994,218.636 "></polyline>
<path clip-path="url(#clip120)" d="M452.64 201.356 L457.663 201.356 L466.251 214.203 L474.886 201.356 L479.909 201.356 L468.798 217.953 L480.649 235.916 L475.626 235.916 L465.904 221.217 L456.113 235.916 L451.066 235.916 L463.404 217.467 L452.64 201.356 Z" fill="#000000" fill-rule="nonzero" fill-opacity="1"></path><polyline clip-path="url(#clip120)" style="stroke:#e26f46; stroke-linecap:round; stroke-linejoin:round; stroke-width:12; stroke-opacity:1; fill:none" points="282.562,270.476 426.994,270.476 "></polyline>
<path clip-path="url(#clip120)" d="M451.066 253.196 L456.089 253.196 L465.673 267.409 L475.186 253.196 L480.21 253.196 L467.987 271.297 L467.987 287.756 L463.288 287.756 L463.288 271.297 L451.066 253.196 Z" fill="#000000" fill-rule="nonzero" fill-opacity="1"></path><polyline clip-path="url(#clip120)" style="stroke:#3da44d; stroke-linecap:round; stroke-linejoin:round; stroke-width:12; stroke-opacity:1; fill:none" points="282.562,322.316 426.994,322.316 "></polyline>
<path clip-path="url(#clip120)" d="M464.261 339.596 L451.066 305.036 L455.95 305.036 L466.899 334.133 L477.872 305.036 L482.733 305.036 L469.562 339.596 L464.261 339.596 Z" fill="#000000" fill-rule="nonzero" fill-opacity="1"></path></svg>